<?xml version="1.0" standalone="no"?>
<!DOCTYPE svg PUBLIC "-//W3C//DTD SVG 20010904//EN"
 "http://www.w3.org/TR/2001/REC-SVG-20010904/DTD/svg10.dtd">
<svg version="1.0" xmlns="http://www.w3.org/2000/svg"
 width="2508.000000pt" height="627.000000pt" viewBox="0 0 2508.000000 627.000000"
 preserveAspectRatio="xMidYMid meet">

<g transform="translate(0.000000,627.000000) scale(0.100000,-0.100000)"
fill="#000000" stroke="none">
<path d="M2104 5121 c-163 -44 -297 -144 -387 -288 -55 -87 -73 -171 -98 -448
-22 -241 -24 -306 -24 -875 1 -559 3 -636 23 -845 41 -424 80 -652 133 -786
59 -151 206 -295 352 -346 79 -27 253 -24 328 5 176 70 286 191 297 327 5 73
-13 116 -61 145 -61 38 -123 21 -208 -57 -75 -67 -107 -89 -157 -104 -37 -11
-50 -10 -95 4 -116 37 -187 142 -232 342 -24 109 -32 168 -59 425 -16 148 -31
562 -29 760 1 69 4 276 6 460 5 364 20 632 38 695 31 109 93 191 175 231 77
38 145 37 216 -3 83 -47 115 -55 159 -41 56 16 114 70 135 123 16 43 16 47 -1
92 -26 68 -106 144 -180 173 -84 33 -233 37 -331 11z"/>
<path d="M10170 5130 c-102 -4 -205 -13 -230 -20 -139 -37 -181 -166 -78 -240
54 -40 92 -45 221 -31 60 7 112 9 116 6 13 -13 30 -2401 21 -2891 l-5 -240 30
-49 c73 -117 213 -114 273 6 l23 46 -11 339 c-7 187 -11 526 -11 754 1 525
-15 1928 -22 1955 -3 11 -8 38 -10 61 l-5 41 129 5 c145 6 181 19 213 79 27
50 15 102 -34 151 l-38 38 -198 -2 c-110 0 -282 -4 -384 -8z"/>
<path d="M16327 5125 c-50 -17 -84 -49 -98 -93 -15 -45 -4 -1194 17 -1712 7
-201 14 -466 14 -590 0 -124 5 -344 11 -490 7 -196 7 -302 -2 -407 -6 -78 -9
-154 -5 -168 15 -59 122 -144 182 -145 12 0 48 14 80 31 58 31 62 31 212 33
135 2 155 4 179 22 95 71 94 166 -3 240 -36 28 -41 29 -153 29 -64 0 -132 -2
-151 -5 l-35 -5 -6 465 c-3 256 -9 508 -13 560 -4 52 -11 538 -16 1080 -8 967
-8 986 -29 1041 -24 63 -49 91 -103 114 -21 8 -39 15 -40 15 -2 -1 -20 -7 -41
-15z"/>
<path d="M13270 4688 c-24 -13 -52 -35 -63 -49 -19 -26 -19 -59 -21 -1050 l-1
-1024 -33 -264 c-38 -304 -64 -404 -114 -446 -27 -23 -39 -26 -75 -22 -61 7
-116 46 -142 101 -11 25 -33 90 -47 143 -22 87 -26 128 -35 373 -5 151 -13
309 -19 350 -5 41 -10 314 -10 605 -1 292 -5 647 -9 790 -7 254 -7 261 -33
310 -33 65 -57 85 -106 92 -67 9 -122 -34 -151 -117 -9 -27 -9 -66 -1 -165 6
-71 15 -506 20 -965 6 -459 15 -866 20 -905 6 -38 17 -145 25 -237 17 -194 44
-326 88 -418 41 -88 148 -195 241 -240 61 -30 77 -34 155 -34 105 -1 156 19
235 94 80 75 138 202 170 366 8 44 26 138 40 210 36 188 45 335 56 924 5 289
15 724 21 968 12 471 10 504 -33 565 -20 29 -87 66 -118 67 -9 0 -36 -10 -60
-22z"/>
<path d="M17605 4699 c-44 -5 -110 -15 -147 -24 -37 -8 -80 -15 -97 -15 -101
0 -189 -48 -211 -114 -15 -48 5 -104 50 -134 30 -20 45 -23 108 -20 l73 3 -7
-915 c-5 -804 -4 -938 10 -1105 22 -247 31 -450 22 -507 -7 -45 -7 -45 -59
-57 -71 -16 -122 -52 -137 -96 -15 -45 -8 -74 27 -116 48 -57 90 -69 250 -69
78 0 154 5 169 10 14 6 61 13 103 16 103 8 135 19 171 60 24 28 30 44 30 82 0
56 -26 104 -69 127 -20 10 -58 15 -116 15 l-85 0 0 453 c0 248 -4 646 -10 882
-5 237 -11 617 -12 845 l-3 415 81 12 c45 6 94 19 108 29 56 36 72 113 36 172
-37 60 -97 71 -285 51z"/>
<path d="M23250 4699 c-47 -4 -123 -15 -170 -23 -47 -8 -111 -18 -143 -21 -85
-8 -134 -36 -159 -92 -19 -43 -19 -47 -3 -89 26 -69 53 -84 147 -84 l79 0 -3
-1017 c-2 -902 -1 -1037 15 -1188 20 -202 21 -311 4 -345 -10 -19 -23 -26 -59
-32 -50 -7 -101 -37 -118 -68 -20 -37 -12 -106 16 -140 51 -59 87 -70 241 -70
85 1 161 6 198 15 33 8 87 15 120 15 71 1 136 27 160 64 26 39 29 105 8 146
-28 53 -72 73 -173 78 l-87 4 -6 587 c-4 322 -11 813 -17 1091 -6 278 -12 595
-13 705 l-2 200 60 8 c93 13 144 35 166 71 40 66 9 159 -61 183 -39 13 -77 14
-200 2z"/>
<path d="M8245 4686 c-36 -15 -84 -70 -86 -94 -1 -9 0 -399 0 -867 2 -901 -6
-1198 -39 -1459 -48 -369 -83 -448 -194 -433 -65 9 -115 70 -154 187 -40 121
-52 202 -52 368 0 73 -7 213 -14 310 -11 125 -16 400 -20 927 -5 809 -6 816
-59 908 -59 100 -189 96 -232 -7 -14 -32 -7 -731 14 -1666 14 -580 57 -926
134 -1075 43 -83 144 -181 237 -229 69 -36 82 -40 155 -40 72 -1 88 3 148 32
183 90 279 358 317 882 5 80 14 330 20 555 14 600 29 1045 41 1255 16 255 11
318 -26 371 -17 23 -42 51 -56 61 -34 25 -96 32 -134 14z"/>
<path d="M9089 4687 c-191 -54 -306 -246 -330 -552 -24 -299 29 -510 219 -875
131 -251 176 -352 211 -473 64 -217 79 -373 56 -551 -32 -248 -107 -409 -202
-432 -14 -4 -52 1 -84 10 -90 25 -135 22 -169 -12 -45 -45 -49 -95 -14 -161
88 -168 346 -157 528 23 108 106 155 213 201 463 35 188 34 354 0 535 -45 233
-81 331 -245 654 -192 378 -222 464 -228 654 -4 151 9 234 53 320 33 65 62 84
117 76 127 -20 133 -19 167 9 65 55 78 120 37 190 -57 96 -205 153 -317 122z"/>
<path d="M19201 4687 c-13 -6 -32 -23 -43 -37 -18 -25 -49 -173 -63 -300 -4
-36 -34 -207 -66 -380 -33 -173 -66 -369 -74 -435 -9 -66 -22 -163 -30 -215
-8 -52 -19 -147 -25 -210 -6 -63 -19 -182 -30 -265 -10 -82 -26 -223 -36 -313
-10 -90 -20 -160 -21 -155 -1 4 -9 85 -18 178 -15 151 -58 461 -85 615 -6 30
-28 165 -50 300 -22 135 -65 369 -95 520 -31 151 -62 322 -70 380 -27 189 -59
253 -141 280 -29 10 -41 9 -79 -10 -79 -38 -106 -142 -70 -270 20 -72 34 -142
105 -525 32 -176 81 -439 109 -585 76 -405 197 -1295 209 -1529 5 -108 6 -115
34 -147 69 -79 169 -54 249 62 46 67 66 135 84 280 9 71 36 244 60 384 24 140
46 278 50 305 3 28 14 109 25 180 10 72 23 218 29 325 13 256 57 505 165 955
24 99 57 241 72 316 25 119 27 141 16 177 -31 102 -133 160 -211 119z"/>
<path d="M3473 4661 c-57 -34 -94 -77 -112 -131 -7 -19 -16 -94 -21 -167 -6
-73 -14 -163 -19 -200 -6 -37 -15 -115 -21 -173 -19 -178 -88 -660 -140 -970
-27 -162 -65 -396 -85 -520 -48 -298 -80 -469 -116 -615 -39 -162 -39 -194 7
-244 49 -55 127 -93 162 -80 88 34 129 147 153 419 18 212 32 296 49 292 8 -2
83 -8 165 -13 83 -4 151 -8 153 -9 1 0 2 -16 2 -35 0 -20 7 -93 15 -163 8 -70
19 -186 23 -259 7 -119 11 -135 35 -172 66 -100 193 -101 251 -1 27 45 24 159
-8 350 -21 122 -26 188 -26 314 0 110 -6 200 -20 286 -20 129 -55 457 -65 615
-4 50 -13 151 -20 225 -8 74 -19 182 -24 240 -6 58 -19 173 -30 255 -11 83
-25 211 -31 285 -7 74 -18 169 -26 210 -8 41 -14 97 -14 123 0 98 -48 158
-132 164 -45 3 -61 -1 -105 -26z m97 -1236 c20 -239 44 -587 56 -809 l7 -128
-64 7 c-78 8 -145 22 -181 36 -27 11 -28 15 -28 76 0 64 28 258 100 693 21
129 46 298 55 375 22 190 30 210 32 85 2 -58 12 -208 23 -335z"/>
<path d="M15410 4681 c-160 -49 -277 -216 -321 -461 -8 -41 -13 -138 -13 -215
1 -273 54 -436 279 -845 35 -63 80 -153 99 -198 104 -242 142 -532 102 -759
-38 -215 -101 -349 -180 -387 -34 -16 -39 -16 -116 5 -69 19 -86 20 -120 10
-107 -32 -103 -186 6 -262 94 -64 213 -62 353 7 151 75 252 222 310 454 60
239 65 426 17 658 -53 256 -109 399 -261 671 -109 196 -123 225 -172 366 -30
85 -36 117 -40 216 -9 181 27 330 93 397 36 36 56 39 129 16 50 -16 54 -16 91
2 59 29 87 77 82 142 -6 69 -44 117 -128 160 -52 26 -74 32 -124 31 -34 0 -72
-4 -86 -8z"/>
<path d="M22009 4660 c-31 -16 -64 -40 -73 -55 -21 -31 -60 -247 -81 -450 -19
-170 -33 -278 -104 -760 -99 -672 -194 -1238 -246 -1476 -19 -85 -35 -175 -35
-200 0 -58 27 -101 87 -139 63 -39 102 -39 146 0 66 58 97 172 122 450 8 91
19 181 23 200 9 40 -12 38 214 25 l136 -8 7 -91 c4 -50 11 -122 17 -161 5 -38
13 -129 17 -201 6 -121 9 -135 34 -173 68 -103 177 -106 251 -8 30 40 32 134
7 269 -27 146 -41 324 -34 419 4 48 0 109 -10 169 -20 115 -52 383 -66 540
-14 158 -59 589 -71 680 -5 41 -14 131 -20 200 -6 69 -19 188 -30 265 -10 77
-22 196 -25 265 -8 149 -15 177 -58 217 -66 63 -120 69 -208 23z m86 -1061 c8
-107 22 -270 30 -364 8 -93 20 -291 25 -440 6 -148 13 -279 16 -289 6 -18 1
-19 -82 -13 -94 6 -182 30 -191 53 -8 23 16 217 66 519 27 160 64 390 82 512
18 123 34 221 36 220 1 -2 9 -91 18 -198z"/>
<path d="M11298 4660 c-99 -30 -170 -132 -222 -320 -9 -30 -29 -145 -46 -255
-26 -175 -32 -246 -41 -560 -26 -868 35 -1462 183 -1763 48 -99 106 -165 184
-212 l58 -35 126 0 c117 0 129 2 188 29 184 85 298 344 343 781 18 180 20
1155 3 1361 -31 365 -90 571 -210 740 -71 100 -143 148 -281 185 -43 11 -107
29 -142 40 -67 20 -99 22 -143 9z m250 -325 c65 -20 110 -58 146 -125 50 -91
56 -134 66 -460 5 -168 14 -354 20 -415 18 -163 8 -899 -13 -1025 -57 -339
-109 -484 -187 -525 -27 -14 -34 -14 -63 0 -142 67 -225 510 -243 1290 -5 236
-3 314 10 417 11 84 16 206 16 365 0 258 9 322 55 412 41 83 86 98 193 66z"/>
<path d="M13996 4646 c-52 -19 -102 -70 -123 -124 -16 -42 -16 -86 -5 -646 7
-331 19 -709 27 -841 21 -349 35 -782 35 -1085 0 -233 2 -269 18 -299 27 -54
65 -76 127 -76 61 0 98 21 129 74 25 42 24 76 -2 291 -30 256 -64 1130 -44
1159 14 20 30 6 42 -37 6 -20 40 -195 75 -389 36 -193 74 -391 85 -440 12 -48
32 -137 46 -198 58 -254 140 -446 210 -492 44 -28 113 -24 157 10 48 36 60 60
61 122 0 41 -6 61 -37 110 -49 79 -87 187 -141 397 -53 207 -162 681 -207 904
l-33 160 51 85 c67 112 116 210 143 289 20 59 23 90 27 315 4 207 2 262 -11
319 -45 191 -180 325 -379 376 -108 27 -204 33 -251 16z m256 -270 c59 -39
108 -193 108 -342 0 -81 -21 -247 -46 -354 -17 -76 -85 -233 -118 -274 l-23
-30 -5 460 c-3 253 -3 485 0 516 4 56 4 56 32 48 15 -4 39 -15 52 -24z"/>
<path d="M19910 4641 c-72 -14 -130 -67 -161 -146 -16 -42 -16 -2816 1 -2860
6 -17 21 -41 33 -53 46 -50 59 -52 334 -52 249 0 259 1 297 23 52 29 77 65 83
118 6 52 -21 99 -77 137 -34 23 -38 24 -192 17 -146 -7 -157 -6 -166 11 -19
38 -22 190 -15 752 l6 572 49 0 c27 0 63 -7 80 -16 92 -48 233 58 214 160 -9
48 -42 85 -100 112 -47 22 -59 23 -155 17 l-104 -6 6 129 c4 71 7 270 7 442
l0 312 35 0 c19 0 69 -11 112 -25 104 -33 167 -33 218 1 55 36 77 69 83 124 4
41 1 51 -27 83 -43 49 -100 74 -217 97 -54 10 -142 28 -194 39 -102 22 -98 22
-150 12z"/>
<path d="M6375 4596 c-49 -22 -104 -75 -106 -99 0 -7 -2 -390 -4 -852 -7
-1288 -6 -1894 4 -1963 12 -80 43 -129 95 -153 53 -24 90 -24 142 1 85 42 79
-17 79 793 l0 719 70 24 c147 52 275 152 334 264 59 111 64 151 65 505 0 296
-2 326 -21 396 -32 113 -77 195 -147 265 -75 75 -134 99 -276 114 -146 15
-179 13 -235 -14z m317 -326 c57 -64 70 -113 75 -285 7 -223 -25 -432 -82
-545 -25 -48 -90 -128 -98 -120 -3 3 -7 229 -9 503 l-4 499 41 -6 c30 -5 49
-16 77 -46z"/>
<path d="M4349 4579 c-67 -39 -67 -41 -62 -354 4 -207 1 -332 -11 -480 -9
-110 -21 -328 -26 -485 -6 -157 -18 -366 -26 -465 -20 -240 -37 -1017 -23
-1053 30 -80 123 -124 202 -96 43 15 82 46 99 77 6 11 11 277 13 680 2 364 9
795 16 957 11 270 8 521 -7 567 -4 14 -4 15 4 3 5 -8 15 -51 22 -95 12 -79 25
-139 133 -625 86 -384 217 -1058 217 -1118 0 -85 136 -127 228 -72 42 26 61
58 83 138 59 210 94 342 124 462 34 138 38 158 105 480 21 102 58 277 83 390
25 113 51 231 57 263 17 84 22 64 9 -34 -13 -96 -5 -901 10 -1034 5 -44 12
-291 16 -550 7 -520 8 -529 71 -584 41 -36 71 -45 124 -38 48 6 95 38 117 80
23 43 22 231 -1 337 -27 119 -30 230 -12 370 14 103 15 143 7 229 -6 57 -11
203 -11 325 0 273 -16 785 -30 960 -6 72 -13 257 -16 411 -6 311 -8 321 -74
357 -27 15 -50 18 -101 16 -110 -6 -163 -63 -199 -213 -10 -38 -52 -189 -95
-335 -164 -565 -256 -972 -287 -1265 -6 -63 -13 -113 -15 -111 -2 2 -10 46
-18 97 -41 273 -193 875 -309 1224 -104 311 -176 519 -188 543 -31 62 -155 84
-229 41z"/>
<path d="M20937 1916 c-81 -30 -147 -110 -147 -181 0 -77 83 -168 165 -180
131 -20 246 97 214 218 -29 109 -138 177 -232 143z"/>
</g>
</svg>
