<svg xmlns="http://www.w3.org/2000/svg" width="24" height="24" fill="none"><g clip-path="url(#a)"><path fill="#EBA27E" d="M6.212 13.683s2.193 5.81 4.74 4.904c3.464-1.231 5.255-3.397 4.896-4.376-.36-.979-2.777-5.527-2.777-5.527s-5.74 1.242-6.859 5Z"/><path fill="#EBA27E" d="m13.484 9.555-3.8-7.804a.94.94 0 0 0-1.342-.388c-.396.245-.463.687-.281 1.116l3.154 7.684 2.27-.607v-.001Z"/><path fill="#EBA27E" d="m7.45 3.431 4.135 7.22-2.14 1.323-3.57-7.73c-.224-.472-.102-.982.375-1.2.44-.2.96-.033 1.2.387Z"/><path fill="#EBA27E" d="m9.226 11.335-3.83-6.06a.743.743 0 0 0-1.283.75l3.406 6.346 1.708-1.036h-.001Z"/><path fill="#EBA27E" d="M7.6 12.365 4.074 7.683a.753.753 0 0 0-1.23.865l3.368 5.135L7.6 12.365ZM9.724 17.026l2.278 6.379c2.58-.784 4.963-1.816 7.058-3.216l-3.211-5.979-6.124 2.816h-.001Z"/><path fill="#0067A0" d="m10.046 19.54 2.148 6.437c3.186-1.06 7.682.279 10.34-1.377l-4.838-8.571-7.649 3.51h-.001Z"/><path fill="#CC7D47" d="M7.2 12.803c.203-.455.488-.872.816-1.249a6.247 6.247 0 0 1 1.114-1.006 6.01 6.01 0 0 1 1.32-.714c.467-.184.956-.31 1.454-.342-.443.231-.872.45-1.288.688-.415.24-.818.492-1.208.764s-.764.565-1.13.875c-.366.311-.716.644-1.079.985H7.2Z"/><path fill="#EBA27E" d="M18.058 7.916a.566.566 0 0 1-.03.207c-.284.486-.53.998-.736 1.536-.642 1.653-.92 3.551-.835 5.716l.007.159c-1.133 1.08-2.603 2.21-3.503 2.412 0 0-.074-.056-.19-.16a5.733 5.733 0 0 1-1.253-1.581c-.423-.817-.655-1.865-.14-3.017.568-1.272 1.562-2.163 2.701-2.585.223-.083.451-.149.682-.194 0 0 .445-2.159 2.556-2.955.37-.141.726.11.743.461l-.002.001Z"/><path fill="#FFCCB3" d="M18.058 7.916a.566.566 0 0 1-.03.207c-.284.486-.53.998-.736 1.536a.687.687 0 0 1-.166-.257c-.13-.339-.046-.734.167-1.026.134-.182.343-.379.563-.449a.367.367 0 0 1 .202-.01Z"/><g fill="#024B71"><path d="M5.274 14.745a3.115 3.115 0 0 1-.836-.518 3.43 3.43 0 0 1-.633-.709 3.118 3.118 0 0 1-.403-.841 2.57 2.57 0 0 1-.12-.927c.128.282.25.555.386.82a8.273 8.273 0 0 0 .985 1.49c.195.232.405.455.622.686ZM14.115 6.769c.032-.288.005-.58-.061-.863a3.3 3.3 0 0 0-.313-.824 3.436 3.436 0 0 0-.528-.736 3.073 3.073 0 0 0-.725-.585c.18.242.355.474.517.713a8.35 8.35 0 0 1 .812 1.492c.108.26.201.528.299.803ZM5.497 16.856a5.77 5.77 0 0 1-1.459-.658 7.73 7.73 0 0 1-1.306-1.011 7.686 7.686 0 0 1-1.08-1.275A6.112 6.112 0 0 1 .9 12.44c.354.428.692.844 1.045 1.244a19.44 19.44 0 0 0 2.278 2.197c.41.334.836.65 1.275.977l-.001-.002ZM15.791 8.065a4.43 4.43 0 0 0 .1-1.372 6.726 6.726 0 0 0-.266-1.456 7.512 7.512 0 0 0-.589-1.442 6.665 6.665 0 0 0-.902-1.32c.202.478.4.939.579 1.4a17.573 17.573 0 0 1 .829 2.775c.097.467.17.934.25 1.416Z"/></g></g><defs><clipPath id="a"><path fill="#fff" d="M0 0h24v24H0z"/></clipPath></defs></svg>